<?xml version="1.0" encoding="utf-8"?>
<!-- Generator: Adobe Illustrator 18.0.0, SVG Export Plug-In . SVG Version: 6.00 Build 0)  -->
<!DOCTYPE svg PUBLIC "-//W3C//DTD SVG 1.1//EN" "http://www.w3.org/Graphics/SVG/1.1/DTD/svg11.dtd">
<svg version="1.1" id="Layer_1" xmlns="http://www.w3.org/2000/svg" xmlns:xlink="http://www.w3.org/1999/xlink" x="0px" y="0px"
	 viewBox="0 370.6 612 50.7" enable-background="new 0 370.6 612 50.7" xml:space="preserve">
<g id="Layer_2" display="none">
	<rect x="-77.4" y="-11.8" display="inline" fill="#EC6A68" width="774.5" height="1002.3"/>
</g>
<g id="Layer_1_1_">
	<g>
		<path fill="#FFFFFF" d="M17.3,403c0,0.3,0,0.4,0,0.6c0,0.3,0,0.4,0,0.6H3.5c0,0.8,0.1,1.4,0.5,2c0.3,0.6,0.8,1.3,1.3,1.6
			c0.5,0.5,1.1,0.9,1.8,1.1s1.4,0.4,2.2,0.4c1.1,0,2.2-0.3,3-0.8c0.9-0.5,1.5-1.1,2-1.9l2.4,1.9c-0.9,1.3-2,2.2-3.3,2.8
			c-1.3,0.6-2.7,0.9-4.2,0.9c-1.3,0-2.5-0.3-3.7-0.6c-1.1-0.4-2.2-1-2.9-1.9c-0.8-0.8-1.4-1.8-1.9-2.9S0,404.5,0,403.2
			s0.3-2.5,0.6-3.7c0.4-1.1,1.1-2.2,1.9-2.9s1.8-1.4,2.9-1.9c1.1-0.5,2.3-0.6,3.5-0.6s2.4,0.3,3.4,0.6c1,0.4,1.9,1,2.7,1.8
			c0.8,0.8,1.3,1.8,1.6,2.8C17.2,400.4,17.3,401.6,17.3,403z M13.9,401.6c0-0.6-0.1-1.3-0.4-1.9s-0.5-1.1-0.9-1.5
			c-0.4-0.4-0.9-0.8-1.5-1s-1.3-0.4-2.2-0.4c-0.8,0-1.4,0.1-2,0.4s-1.3,0.6-1.6,1c-0.5,0.4-0.9,1-1.1,1.5c-0.3,0.5-0.5,1.3-0.5,1.9
			H13.9z"/>
		<path fill="#FFFFFF" d="M27.7,394.9c1-0.6,2.2-1,3.4-1c1.1,0,2.3,0.3,3.2,0.8c0.9,0.5,1.6,1.4,2.3,2.7c0.6-1.1,1.4-2,2.4-2.5
			c1-0.6,2.2-0.9,3.4-0.9c1.1,0,2.2,0.1,2.9,0.5c0.8,0.4,1.5,0.9,2,1.5c0.5,0.6,0.9,1.4,1.1,2.3c0.3,0.9,0.4,1.8,0.4,2.8v10.8h-3.4
			v-9.6c0-0.8,0-1.4-0.1-2s-0.4-1.1-0.6-1.6s-0.6-0.9-1.1-1.1c-0.5-0.3-1.1-0.4-1.9-0.4s-1.5,0.1-2,0.5c-0.5,0.4-1,0.8-1.4,1.3
			s-0.6,1.1-0.8,1.8c-0.1,0.6-0.3,1.4-0.3,2v9.4h-3.4v-10.4c0-0.6,0-1.3-0.1-1.9c-0.1-0.5-0.4-1-0.6-1.4c-0.3-0.4-0.6-0.8-1.1-1
			s-1-0.4-1.8-0.4c-1.3,0-2.3,0.5-3.2,1.5c-0.9,1-1.3,2.4-1.3,4.2v9.2h-3.4v-13.5c0-0.5,0-1,0-1.8s0-1.4-0.1-1.9h3.2
			c0,0.4,0.1,0.9,0.1,1.5c0,0.5,0,1,0,1.4h0.1C25.9,396.3,26.7,395.6,27.7,394.9z"/>
		<path fill="#FFFFFF" d="M58.7,388.1c0,0.6-0.3,1.1-0.6,1.5c-0.5,0.4-1,0.6-1.6,0.6s-1.1-0.3-1.6-0.6c-0.4-0.4-0.6-0.9-0.6-1.5
			s0.3-1.1,0.6-1.6c0.4-0.5,1-0.6,1.6-0.6s1.1,0.3,1.6,0.6C58.6,386.8,58.7,387.5,58.7,388.1z M58.2,411.9h-3.4v-17.5h3.4V411.9z"/>
		<path fill="#FFFFFF" d="M67.7,411.9h-3.4V384h3.4V411.9z"/>
		<path fill="#FFFFFF" d="M80.4,408.1L80.4,408.1l4.9-13.7H89l-8.5,21.5c-0.3,0.8-0.6,1.4-1,2c-0.4,0.6-0.8,1-1.3,1.5
			c-0.5,0.4-1,0.8-1.6,0.9c-0.6,0.3-1.4,0.4-2.3,0.4c-0.4,0-0.8,0-1.1,0c-0.4,0-0.8-0.1-1.1-0.3l0.4-3c0.6,0.3,1.1,0.3,1.8,0.3
			c0.9,0,1.5-0.3,2-0.8c0.4-0.5,0.9-1.3,1.3-2.2l1.1-2.9l-7.5-17.3h3.8L80.4,408.1z"/>
		<path fill="#FFFFFF" d="M104.5,394.4c0,0.4,0.1,0.9,0.1,1.5c0,0.5,0,1,0,1.4h0.1c0.3-0.5,0.5-0.9,0.9-1.3c0.4-0.4,0.8-0.8,1.3-1
			s1-0.5,1.6-0.8c0.6-0.3,1.1-0.3,1.9-0.3c1.1,0,2.2,0.1,2.9,0.5c0.8,0.4,1.5,0.9,2,1.5c0.5,0.6,0.9,1.4,1.1,2.3
			c0.3,0.9,0.4,1.8,0.4,2.8v10.8h-3.4v-9.6c0-0.8,0-1.4-0.1-2c-0.1-0.6-0.3-1.1-0.6-1.6c-0.3-0.5-0.8-0.9-1.3-1.1
			c-0.5-0.3-1.1-0.4-2-0.4c-1.4,0-2.5,0.5-3.4,1.5c-0.9,1-1.3,2.4-1.3,4.2v9.2h-3.4v-13.8c0-0.5,0-1,0-1.8s0-1.4-0.1-1.9h3.3V394.4z
			"/>
		<path fill="#FFFFFF" d="M124.1,414.8c0.8,0.9,1.6,1.5,2.8,2c1.1,0.5,2.3,0.8,3.5,0.8c1.1,0,2.2-0.1,2.9-0.5
			c0.8-0.4,1.4-0.8,1.9-1.4c0.5-0.6,0.8-1.3,1-2c0.3-0.8,0.3-1.6,0.3-2.5v-2.3h-0.1c-0.6,1-1.5,1.8-2.7,2.3s-2.3,0.8-3.5,0.8
			s-2.5-0.3-3.7-0.8s-2-1.1-2.8-1.9c-0.8-0.8-1.4-1.8-1.8-2.8c-0.4-1.1-0.6-2.3-0.6-3.5s0.3-2.4,0.6-3.5c0.4-1.1,1-2,1.8-2.9
			c0.8-0.8,1.6-1.5,2.8-1.9c1.1-0.4,2.3-0.8,3.5-0.8c1.3,0,2.4,0.3,3.5,0.8c1.1,0.5,2,1.4,2.7,2.4h0.1v-2.8h3.3v16.6
			c0,1.3-0.1,2.5-0.5,3.7c-0.4,1.1-0.9,2.2-1.6,3s-1.8,1.6-2.9,2.2s-2.8,0.8-4.6,0.8c-1.5,0-3-0.3-4.6-0.9c-1.5-0.5-2.8-1.3-3.9-2.3
			L124.1,414.8z M125.2,402.9c0,0.8,0.1,1.5,0.4,2.3c0.3,0.8,0.6,1.4,1.1,1.9c0.5,0.5,1.1,1,1.8,1.4c0.8,0.4,1.5,0.5,2.4,0.5
			c0.9,0,1.6-0.1,2.4-0.5c0.8-0.4,1.4-0.8,1.9-1.3c0.5-0.5,0.9-1.1,1.1-1.9c0.3-0.8,0.4-1.5,0.4-2.4c0-0.9-0.1-1.6-0.4-2.4
			s-0.6-1.4-1.3-1.9c-0.5-0.5-1.1-1-1.9-1.4c-0.8-0.4-1.5-0.5-2.4-0.5c-0.9,0-1.8,0.1-2.4,0.5c-0.8,0.4-1.3,0.8-1.8,1.3
			c-0.5,0.5-0.9,1.1-1.1,1.9C125.3,401.4,125.2,402.1,125.2,402.9z"/>
		<path fill="#FFFFFF" d="M158.2,411.9c0-0.4-0.1-0.9-0.1-1.5c0-0.5,0-1,0-1.4h-0.1c-0.4,0.9-1.1,1.8-2.3,2.4c-1,0.6-2.2,1-3.4,1
			c-1.1,0-2.2-0.1-2.9-0.5c-0.8-0.4-1.5-0.9-2-1.5c-0.5-0.6-0.9-1.4-1.1-2.3c-0.3-0.9-0.4-1.8-0.4-2.8v-10.8h3.4v9.6
			c0,0.8,0,1.4,0.1,2c0.1,0.6,0.3,1.3,0.6,1.6c0.3,0.5,0.8,0.9,1.3,1.1c0.5,0.3,1.1,0.4,2,0.4c1.4,0,2.5-0.5,3.4-1.5
			c0.9-1,1.3-2.4,1.3-4.2v-9.2h3.4v13.7c0,0.5,0,1,0,1.8s0,1.4,0.1,1.9h-3.3V411.9z"/>
		<path fill="#FFFFFF" d="M174,408.1L174,408.1l4.9-13.7h3.7l-8.5,21.5c-0.3,0.8-0.6,1.4-1,2s-0.8,1-1.3,1.5c-0.5,0.4-1,0.8-1.6,0.9
			c-0.6,0.3-1.4,0.4-2.3,0.4c-0.4,0-0.8,0-1.1,0s-0.8-0.1-1.1-0.3l0.4-3c0.6,0.3,1.1,0.3,1.8,0.3c0.9,0,1.5-0.3,2-0.8
			c0.4-0.5,0.9-1.3,1.3-2.2l1.1-2.9l-7.5-17.3h3.8L174,408.1z"/>
		<path fill="#FFFFFF" d="M202.1,403c0,0.3,0,0.4,0,0.6c0,0.3,0,0.4,0,0.6h-13.8c0,0.8,0.1,1.4,0.5,2c0.3,0.6,0.8,1.3,1.3,1.6
			c0.5,0.5,1.1,0.9,1.8,1.1s1.4,0.4,2.2,0.4c1.1,0,2.2-0.3,3-0.8c0.9-0.5,1.5-1.1,2-1.9l2.4,1.9c-0.9,1.3-2,2.2-3.3,2.8
			c-1.3,0.6-2.7,0.9-4.2,0.9c-1.3,0-2.5-0.3-3.7-0.6c-1.1-0.4-2.2-1-2.9-1.9c-0.8-0.8-1.4-1.8-1.9-2.9s-0.8-2.4-0.8-3.8
			s0.3-2.5,0.6-3.7c0.4-1.1,1.1-2.2,1.9-2.9s1.8-1.4,2.9-1.9c1.1-0.5,2.3-0.6,3.5-0.6s2.4,0.3,3.4,0.6c1,0.4,1.9,1,2.7,1.8
			s1.3,1.8,1.6,2.8C201.8,400.4,202.1,401.6,202.1,403z M198.6,401.6c0-0.6-0.1-1.3-0.4-1.9s-0.5-1.1-0.9-1.5
			c-0.4-0.4-0.9-0.8-1.5-1s-1.3-0.4-2.2-0.4c-0.8,0-1.4,0.1-2,0.4c-0.6,0.3-1.3,0.6-1.6,1c-0.5,0.4-0.9,1-1.1,1.5
			c-0.3,0.5-0.5,1.3-0.5,1.9H198.6z"/>
		<path fill="#FFFFFF" d="M209.9,394.4c0,0.4,0.1,0.9,0.1,1.5c0,0.5,0,1,0,1.4h0.1c0.3-0.5,0.5-0.9,0.9-1.3c0.4-0.4,0.8-0.8,1.3-1
			s1-0.5,1.6-0.8c0.6-0.3,1.1-0.3,1.9-0.3c1.1,0,2.2,0.1,2.9,0.5c0.8,0.4,1.5,0.9,2,1.5c0.5,0.6,0.9,1.4,1.1,2.3
			c0.3,0.9,0.4,1.8,0.4,2.8v10.8h-3.4v-9.6c0-0.8,0-1.4-0.1-2c-0.1-0.6-0.3-1.1-0.6-1.6c-0.3-0.5-0.8-0.9-1.3-1.1
			c-0.5-0.3-1.1-0.4-2-0.4c-1.4,0-2.5,0.5-3.4,1.5c-0.9,1-1.3,2.4-1.3,4.2v9.2h-3.4v-13.8c0-0.5,0-1,0-1.8s0-1.4-0.1-1.9h3.3V394.4z
			"/>
		<path fill="#FFFFFF" d="M237,413l-2.7-0.9l11.3-27.6l2.7,1L237,413z"/>
		<path fill="#FFFFFF" d="M274.4,409.1c-0.6,1-1.5,1.9-2.7,2.4c-1.1,0.5-2.3,0.9-3.5,0.9c-1.4,0-2.5-0.3-3.7-0.8
			c-1.1-0.5-2-1.1-2.8-2s-1.4-1.8-1.8-2.9c-0.4-1.1-0.6-2.3-0.6-3.5c0-1.3,0.3-2.4,0.6-3.5c0.4-1.1,1-2,1.8-2.9
			c0.8-0.9,1.6-1.5,2.8-1.9c1.1-0.4,2.3-0.8,3.5-0.8c1.4,0,2.7,0.3,3.7,0.9s1.9,1.3,2.5,2.2h0.1v-13h3.4v27.7h-3.3L274.4,409.1
			L274.4,409.1z M263,403.2c0,0.8,0.1,1.6,0.4,2.4c0.3,0.8,0.6,1.4,1.1,2s1.1,1,1.8,1.4c0.8,0.4,1.5,0.5,2.5,0.5
			c0.9,0,1.6-0.1,2.4-0.5c0.8-0.4,1.4-0.8,1.9-1.4s0.9-1.3,1.1-2c0.3-0.8,0.4-1.5,0.4-2.4c0-0.9-0.1-1.6-0.4-2.4
			c-0.3-0.8-0.6-1.4-1.1-2s-1.1-1-1.9-1.4c-0.8-0.4-1.5-0.5-2.4-0.5c-1,0-1.8,0.1-2.5,0.5c-0.8,0.4-1.3,0.8-1.8,1.4s-0.9,1.3-1.1,2
			S263,402.3,263,403.2z"/>
		<path fill="#FFFFFF" d="M300.1,403c0,0.3,0,0.4,0,0.6c0,0.3,0,0.4,0,0.6h-13.8c0,0.8,0.1,1.4,0.5,2c0.3,0.6,0.8,1.3,1.3,1.6
			c0.5,0.5,1.1,0.9,1.8,1.1s1.4,0.4,2.2,0.4c1.1,0,2.2-0.3,3-0.8c0.9-0.5,1.5-1.1,2-1.9l2.4,1.9c-0.9,1.3-2,2.2-3.3,2.8
			c-1.3,0.6-2.7,0.9-4.2,0.9c-1.3,0-2.5-0.3-3.7-0.6c-1.1-0.4-2.2-1-2.9-1.9c-0.8-0.8-1.4-1.8-1.9-2.9s-0.8-2.4-0.8-3.8
			s0.3-2.5,0.6-3.7c0.4-1.1,1.1-2.2,1.9-2.9c0.8-0.8,1.8-1.4,2.9-1.9c1.1-0.5,2.3-0.6,3.5-0.6c1.3,0,2.4,0.3,3.4,0.6
			c1,0.4,1.9,1,2.7,1.8s1.3,1.8,1.6,2.8C299.9,400.4,300.1,401.6,300.1,403z M296.5,401.6c0-0.6-0.1-1.3-0.4-1.9
			c-0.3-0.6-0.5-1.1-0.9-1.5c-0.4-0.4-0.9-0.8-1.5-1c-0.6-0.3-1.3-0.4-2.2-0.4c-0.8,0-1.4,0.1-2,0.4c-0.6,0.3-1.3,0.6-1.6,1
			c-0.5,0.4-0.9,1-1.1,1.5c-0.3,0.5-0.5,1.3-0.5,1.9H296.5z"/>
		<path fill="#FFFFFF" d="M314.2,398.8c-0.4-0.6-0.9-1.1-1.6-1.5c-0.8-0.4-1.5-0.6-2.4-0.6c-0.4,0-0.8,0-1.1,0.1
			c-0.4,0.1-0.8,0.3-1,0.4c-0.3,0.1-0.5,0.4-0.8,0.8c-0.1,0.3-0.3,0.6-0.3,1c0,0.8,0.4,1.3,1,1.6c0.6,0.4,1.6,0.6,2.9,1
			c0.9,0.3,1.6,0.4,2.3,0.8c0.8,0.3,1.3,0.6,1.9,1c0.6,0.4,0.9,0.9,1.3,1.4c0.3,0.5,0.4,1.3,0.4,2c0,1-0.3,1.9-0.6,2.7
			s-0.9,1.3-1.5,1.8c-0.6,0.5-1.4,0.8-2.3,1c-0.9,0.3-1.6,0.3-2.5,0.3c-1.3,0-2.7-0.3-3.9-0.8c-1.3-0.5-2.3-1.3-3.2-2.4l2.4-2.2
			c0.5,0.6,1.1,1.3,1.9,1.8c0.8,0.5,1.8,0.8,2.7,0.8c0.4,0,0.9,0,1.3-0.1c0.4-0.1,0.8-0.3,1.1-0.4c0.4-0.3,0.6-0.5,0.8-0.8
			c0.3-0.4,0.3-0.8,0.3-1.3c0-0.8-0.4-1.4-1.1-1.8c-0.8-0.4-1.9-0.8-3.4-1.1c-0.6-0.1-1.1-0.4-1.8-0.5c-0.6-0.3-1.1-0.5-1.6-0.9
			c-0.5-0.4-0.9-0.9-1.1-1.4c-0.3-0.5-0.5-1.3-0.5-2c0-0.9,0.3-1.8,0.6-2.4c0.4-0.6,0.9-1.3,1.5-1.6c0.6-0.4,1.3-0.8,2.2-1
			c0.8-0.3,1.6-0.3,2.4-0.3c1.3,0,2.4,0.3,3.7,0.8s2,1.1,2.7,2.2L314.2,398.8z"/>
		<rect x="321.2" y="394.4" fill="#FFFFFF" width="3.4" height="17.3"/>
		<path fill="#FFFFFF" d="M332.1,414.8c0.8,0.9,1.6,1.5,2.8,2c1.1,0.5,2.3,0.8,3.5,0.8c1.1,0,2.2-0.1,2.9-0.5
			c0.8-0.4,1.4-0.8,1.9-1.4c0.5-0.6,0.8-1.3,1-2c0.3-0.8,0.3-1.6,0.3-2.5v-2.3h-0.1c-0.6,1-1.5,1.8-2.7,2.3s-2.3,0.8-3.5,0.8
			s-2.5-0.3-3.7-0.8c-1.1-0.5-2-1.1-2.8-1.9s-1.4-1.8-1.8-2.8c-0.4-1.1-0.6-2.3-0.6-3.5s0.3-2.4,0.6-3.5c0.4-1.1,1-2,1.8-2.9
			c0.8-0.8,1.6-1.5,2.8-1.9c1.1-0.4,2.3-0.8,3.5-0.8s2.4,0.3,3.5,0.8c1.1,0.5,2,1.4,2.7,2.4h0.1v-2.8h3.3v16.6
			c0,1.3-0.1,2.5-0.5,3.7c-0.4,1.1-0.9,2.2-1.6,3c-0.8,0.9-1.8,1.6-2.9,2.2s-2.8,0.8-4.6,0.8c-1.5,0-3-0.3-4.6-0.9
			c-1.5-0.5-2.8-1.3-3.9-2.3L332.1,414.8z M333.1,402.9c0,0.8,0.1,1.5,0.4,2.3c0.3,0.8,0.6,1.4,1.1,1.9s1.1,1,1.8,1.4
			c0.8,0.4,1.5,0.5,2.4,0.5c0.9,0,1.6-0.1,2.4-0.5c0.8-0.4,1.4-0.8,1.9-1.3c0.5-0.5,0.9-1.1,1.1-1.9c0.3-0.8,0.4-1.5,0.4-2.4
			c0-0.9-0.1-1.6-0.4-2.4c-0.3-0.8-0.6-1.4-1.3-1.9c-0.5-0.5-1.1-1-1.9-1.4s-1.5-0.5-2.4-0.5c-0.9,0-1.8,0.1-2.4,0.5
			c-0.8,0.4-1.3,0.8-1.8,1.3s-0.9,1.1-1.1,1.9C333.2,401.4,333.1,402.1,333.1,402.9z"/>
		<path fill="#FFFFFF" d="M357,394.4c0,0.4,0.1,0.9,0.1,1.5c0,0.5,0,1,0,1.4h0.1c0.3-0.5,0.5-0.9,0.9-1.3c0.4-0.4,0.8-0.8,1.3-1
			c0.5-0.3,1-0.5,1.6-0.8s1.1-0.3,1.9-0.3c1.1,0,2.2,0.1,2.9,0.5c0.8,0.4,1.5,0.9,2,1.5c0.5,0.6,0.9,1.4,1.1,2.3
			c0.3,0.9,0.4,1.8,0.4,2.8v10.8H366v-9.6c0-0.8,0-1.4-0.1-2c-0.1-0.6-0.3-1.1-0.6-1.6c-0.3-0.5-0.8-0.9-1.3-1.1
			c-0.5-0.3-1.1-0.4-2-0.4c-1.4,0-2.5,0.5-3.4,1.5c-0.9,1-1.3,2.4-1.3,4.2v9.2h-3.4v-13.8c0-0.5,0-1,0-1.8s0-1.4-0.1-1.9h3.3V394.4z
			"/>
		<path fill="#FFFFFF" d="M391.4,403c0,0.3,0,0.4,0,0.6c0,0.3,0,0.4,0,0.6h-13.8c0,0.8,0.1,1.4,0.5,2c0.3,0.6,0.8,1.3,1.3,1.6
			c0.5,0.5,1.1,0.9,1.8,1.1s1.4,0.4,2.2,0.4c1.1,0,2.2-0.3,3-0.8c0.9-0.5,1.5-1.1,2-1.9l2.4,1.9c-0.9,1.3-2,2.2-3.3,2.8
			c-1.3,0.6-2.7,0.9-4.2,0.9c-1.3,0-2.5-0.3-3.7-0.6c-1.1-0.4-2.2-1-2.9-1.9c-0.8-0.8-1.4-1.8-1.9-2.9s-0.8-2.4-0.8-3.8
			s0.3-2.5,0.6-3.7c0.4-1.1,1.1-2.2,1.9-2.9s1.8-1.4,2.9-1.9c1.1-0.5,2.3-0.6,3.5-0.6c1.3,0,2.4,0.3,3.4,0.6c1,0.4,1.9,1,2.7,1.8
			c0.8,0.8,1.3,1.8,1.6,2.8C391.3,400.4,391.4,401.6,391.4,403z M388,401.6c0-0.6-0.1-1.3-0.4-1.9c-0.3-0.6-0.5-1.1-0.9-1.5
			c-0.4-0.4-0.9-0.8-1.5-1s-1.3-0.4-2.2-0.4c-0.8,0-1.4,0.1-2,0.4s-1.3,0.6-1.6,1c-0.5,0.4-0.9,1-1.1,1.5c-0.3,0.5-0.5,1.3-0.5,1.9
			H388z"/>
		<path fill="#FFFFFF" d="M396.2,396.3c0-0.8,0-1.4-0.1-1.9h3.3c0,0.4,0.1,0.9,0.1,1.5s0,1,0,1.4h0.1c0.5-1,1.3-1.9,2.2-2.5
			s2-0.9,3.2-0.9c0.5,0,1,0,1.4,0.1l-0.1,3.2c-0.5-0.1-1-0.1-1.5-0.1c-0.9,0-1.5,0.1-2.2,0.5c-0.6,0.3-1.1,0.8-1.5,1.3
			c-0.4,0.5-0.8,1.1-0.9,1.8c-0.3,0.6-0.3,1.4-0.3,2.2v9.1h-3.4v-13.7C396.2,397.7,396.2,397.1,396.2,396.3z"/>
		<path fill="#FFFFFF" d="M418.3,413l-2.7-0.9l11.3-27.6l2.7,1L418.3,413z"/>
		<path fill="#FFFFFF" d="M455.7,409.1c-0.6,1-1.5,1.9-2.7,2.4c-1.1,0.5-2.3,0.9-3.5,0.9c-1.4,0-2.5-0.3-3.7-0.8
			c-1.1-0.5-2-1.1-2.8-2s-1.4-1.8-1.8-2.9c-0.4-1.1-0.6-2.3-0.6-3.5c0-1.3,0.3-2.4,0.6-3.5c0.4-1.1,1-2,1.8-2.9s1.6-1.5,2.8-1.9
			c1.1-0.4,2.3-0.8,3.5-0.8c1.4,0,2.7,0.3,3.7,0.9s1.9,1.3,2.5,2.2h0.1v-13h3.4v27.7h-3.3L455.7,409.1L455.7,409.1z M444.2,403.2
			c0,0.8,0.1,1.6,0.4,2.4c0.3,0.8,0.6,1.4,1.1,2s1.1,1,1.8,1.4c0.8,0.4,1.5,0.5,2.5,0.5c0.9,0,1.6-0.1,2.4-0.5
			c0.8-0.4,1.4-0.8,1.9-1.4s0.9-1.3,1.1-2c0.3-0.8,0.4-1.5,0.4-2.4c0-0.9-0.1-1.6-0.4-2.4c-0.3-0.8-0.6-1.4-1.1-2s-1.1-1-1.9-1.4
			c-0.8-0.4-1.5-0.5-2.4-0.5c-1,0-1.8,0.1-2.5,0.5c-0.8,0.4-1.3,0.8-1.8,1.4s-0.9,1.3-1.1,2S444.2,402.3,444.2,403.2z"/>
		<path fill="#FFFFFF" d="M481.4,403c0,0.3,0,0.4,0,0.6c0,0.3,0,0.4,0,0.6h-13.8c0,0.8,0.1,1.4,0.5,2c0.3,0.6,0.8,1.3,1.3,1.6
			c0.5,0.5,1.1,0.9,1.8,1.1s1.4,0.4,2.2,0.4c1.1,0,2.2-0.3,3-0.8c0.9-0.5,1.5-1.1,2-1.9l2.4,1.9c-0.9,1.3-2,2.2-3.3,2.8
			c-1.3,0.6-2.7,0.9-4.2,0.9c-1.3,0-2.5-0.3-3.7-0.6c-1.1-0.4-2.2-1-2.9-1.9c-0.8-0.8-1.4-1.8-1.9-2.9s-0.8-2.4-0.8-3.8
			s0.3-2.5,0.6-3.7c0.4-1.1,1.1-2.2,1.9-2.9s1.8-1.4,2.9-1.9c1.1-0.5,2.3-0.6,3.5-0.6s2.4,0.3,3.4,0.6c1,0.4,1.9,1,2.7,1.8
			s1.3,1.8,1.6,2.8C481.1,400.4,481.4,401.6,481.4,403z M477.9,401.6c0-0.6-0.1-1.3-0.4-1.9c-0.3-0.6-0.5-1.1-0.9-1.5
			c-0.4-0.4-0.9-0.8-1.5-1s-1.3-0.4-2.2-0.4c-0.8,0-1.4,0.1-2,0.4c-0.6,0.3-1.3,0.6-1.6,1c-0.5,0.4-0.9,1-1.1,1.5
			c-0.3,0.5-0.5,1.3-0.5,1.9H477.9z"/>
		<path fill="#FFFFFF" d="M494.3,411.9h-3.8l-7.1-17.3h3.8l5.1,13.7h0.1l5.2-13.7h3.7L494.3,411.9z"/>
		<path fill="#FFFFFF" d="M520.9,403c0,0.3,0,0.4,0,0.6c0,0.3,0,0.4,0,0.6h-13.8c0,0.8,0.1,1.4,0.5,2c0.3,0.6,0.8,1.3,1.3,1.6
			c0.5,0.5,1.1,0.9,1.8,1.1s1.4,0.4,2.2,0.4c1.1,0,2.2-0.3,3-0.8c0.9-0.5,1.5-1.1,2-1.9l2.4,1.9c-0.9,1.3-2,2.2-3.3,2.8
			c-1.3,0.6-2.7,0.9-4.2,0.9c-1.3,0-2.5-0.3-3.7-0.6c-1.1-0.4-2.2-1-2.9-1.9c-0.8-0.8-1.4-1.8-1.9-2.9s-0.8-2.4-0.8-3.8
			s0.3-2.5,0.6-3.7c0.4-1.1,1.1-2.2,1.9-2.9s1.8-1.4,2.9-1.9c1.1-0.5,2.3-0.6,3.5-0.6s2.4,0.3,3.4,0.6c1,0.4,1.9,1,2.7,1.8
			s1.3,1.8,1.6,2.8C520.8,400.4,520.9,401.6,520.9,403z M517.3,401.6c0-0.6-0.1-1.3-0.4-1.9s-0.5-1.1-0.9-1.5
			c-0.4-0.4-0.9-0.8-1.5-1s-1.3-0.4-2.2-0.4c-0.8,0-1.4,0.1-2,0.4s-1.3,0.6-1.6,1c-0.5,0.4-0.9,1-1.1,1.5c-0.3,0.5-0.5,1.3-0.5,1.9
			H517.3z"/>
		<path fill="#FFFFFF" d="M529.2,411.9h-3.4V384h3.4V411.9z"/>
		<path fill="#FFFFFF" d="M552.9,403.2c0,1.4-0.3,2.5-0.8,3.7c-0.5,1.1-1.1,2.2-2,2.9s-1.9,1.5-3,1.9c-1.1,0.5-2.4,0.6-3.7,0.6
			s-2.5-0.3-3.7-0.6c-1.1-0.5-2.2-1.1-2.9-1.9c-0.9-0.8-1.5-1.8-2-2.9c-0.5-1.1-0.8-2.4-0.8-3.7c0-1.4,0.3-2.5,0.8-3.7
			c0.5-1.1,1.1-2,2-2.9c0.9-0.8,1.8-1.4,2.9-1.9c1.1-0.5,2.4-0.6,3.7-0.6s2.5,0.3,3.7,0.6c1.1,0.5,2.2,1.1,3,1.9
			c0.9,0.8,1.5,1.8,2,2.9C552.6,400.5,552.9,401.8,552.9,403.2z M549.2,403.2c0-0.9-0.1-1.6-0.4-2.4c-0.3-0.8-0.6-1.4-1.1-2
			c-0.5-0.6-1.1-1-1.8-1.4c-0.6-0.4-1.5-0.5-2.5-0.5c-0.9,0-1.8,0.1-2.5,0.5c-0.8,0.4-1.4,0.8-1.8,1.4s-0.9,1.3-1.1,2
			c-0.3,0.8-0.4,1.5-0.4,2.4c0,0.9,0.1,1.6,0.4,2.4c0.3,0.8,0.6,1.4,1.1,2c0.5,0.6,1.1,1,1.8,1.4c0.8,0.4,1.5,0.5,2.5,0.5
			c0.9,0,1.8-0.1,2.5-0.5c0.8-0.4,1.4-0.8,1.8-1.4c0.5-0.6,0.9-1.3,1.1-2C549.1,404.7,549.2,403.9,549.2,403.2z"/>
		<path fill="#FFFFFF" d="M561,420.6h-3.4v-26.2h3.4v2.8h0.1c0.5-0.9,1.4-1.6,2.5-2.3c1.1-0.6,2.4-0.9,3.8-0.9
			c1.3,0,2.5,0.3,3.5,0.8c1,0.5,2,1.1,2.8,1.9c0.8,0.9,1.4,1.8,1.8,2.9c0.4,1.1,0.6,2.3,0.6,3.5c0,1.3-0.3,2.5-0.6,3.5
			c-0.4,1.1-1,2.2-1.8,2.9c-0.8,0.9-1.6,1.5-2.8,2c-1,0.5-2.3,0.8-3.7,0.8c-1.3,0-2.4-0.3-3.5-0.8c-1.1-0.5-2-1.3-2.7-2.3H561V420.6
			z M572.5,403.2c0-0.8-0.1-1.6-0.4-2.4c-0.3-0.8-0.6-1.4-1.1-2c-0.5-0.6-1.1-1-1.8-1.4c-0.8-0.4-1.5-0.5-2.5-0.5
			c-0.9,0-1.6,0.1-2.4,0.5c-0.8,0.4-1.4,0.8-1.9,1.4c-0.5,0.6-0.9,1.3-1.1,2s-0.4,1.5-0.4,2.4c0,0.9,0.1,1.6,0.4,2.4
			c0.3,0.8,0.6,1.4,1.1,2c0.5,0.6,1.1,1,1.9,1.4c0.8,0.4,1.5,0.5,2.4,0.5c1,0,1.8-0.1,2.5-0.5c0.8-0.4,1.3-0.9,1.8-1.4
			c0.5-0.6,0.9-1.3,1.1-2C572.4,404.7,572.5,403.9,572.5,403.2z"/>
		<path fill="#FFFFFF" d="M597.2,403c0,0.3,0,0.4,0,0.6c0,0.3,0,0.4,0,0.6h-13.8c0,0.8,0.1,1.4,0.5,2c0.3,0.6,0.8,1.3,1.3,1.6
			c0.5,0.5,1.1,0.9,1.8,1.1s1.4,0.4,2.2,0.4c1.1,0,2.2-0.3,3-0.8c0.9-0.5,1.5-1.1,2-1.9l2.4,1.9c-0.9,1.3-2,2.2-3.3,2.8
			c-1.3,0.6-2.7,0.9-4.2,0.9c-1.3,0-2.5-0.3-3.7-0.6c-1.1-0.4-2.2-1-2.9-1.9c-0.8-0.8-1.4-1.8-1.9-2.9c-0.5-1.1-0.8-2.4-0.8-3.8
			s0.3-2.5,0.6-3.7c0.4-1.1,1.1-2.2,1.9-2.9c0.8-0.8,1.8-1.4,2.9-1.9c1.1-0.5,2.3-0.6,3.5-0.6c1.3,0,2.4,0.3,3.4,0.6
			c1,0.4,1.9,1,2.7,1.8c0.8,0.8,1.3,1.8,1.6,2.8C596.9,400.4,597.2,401.6,597.2,403z M593.7,401.6c0-0.6-0.1-1.3-0.4-1.9
			c-0.3-0.6-0.5-1.1-0.9-1.5c-0.4-0.4-0.9-0.8-1.5-1s-1.3-0.4-2.2-0.4c-0.8,0-1.4,0.1-2,0.4s-1.3,0.6-1.6,1c-0.5,0.4-0.9,1-1.1,1.5
			c-0.3,0.5-0.5,1.3-0.5,1.9H593.7z"/>
		<path fill="#FFFFFF" d="M601.9,396.3c0-0.8,0-1.4-0.1-1.9h3.3c0,0.4,0.1,0.9,0.1,1.5s0,1,0,1.4h0.1c0.5-1,1.3-1.9,2.2-2.5
			s2-0.9,3.2-0.9c0.5,0,1,0,1.4,0.1l-0.1,3.2c-0.5-0.1-1-0.1-1.5-0.1c-0.9,0-1.5,0.1-2.2,0.5c-0.6,0.3-1.1,0.8-1.5,1.3
			c-0.4,0.5-0.8,1.1-0.9,1.8c-0.3,0.6-0.3,1.4-0.3,2.2v9.1h-3.4v-13.7C601.9,397.7,601.9,397.1,601.9,396.3z"/>
		<path fill="#FFF57D" d="M329.3,377c0-3.5-2.8-6.3-6.3-6.3s-6.3,2.8-6.3,6.3c0,1.9,0.9,3.7,2.3,4.8c0.9,0.9,1.4,1.5,1.6,2.4
			c0.5,1.3,0.6,2.8,0.6,2.8h0.4h2.7h0.4c0,0,0.1-1.5,0.6-2.8c0.4-0.9,0.8-1.6,1.8-2.5C328.4,380.6,329.3,378.9,329.3,377z"/>
		<rect x="321.2" y="388.3" fill="#FFFFFF" width="3.4" height="1.1"/>
		<rect x="321.2" y="390" fill="#FFFFFF" width="3.4" height="1.1"/>
		<polygon fill="#FFFFFF" points="529.2,374.7 529.2,379.7 527.5,381 525.7,379.7 525.7,374.7 522.9,377.8 522.9,380.9 525.7,384 
			525.7,386.8 529.2,386.8 529.2,384 532.1,380.9 532.1,377.8 		"/>
		<polygon fill="#FFFFFF" points="529.2,421.4 529.2,416.2 527.5,414.9 525.7,416.2 525.7,421.4 522.9,418.1 522.9,415.2 
			525.7,411.9 525.7,409.1 529.2,409.1 529.2,411.9 532.1,415.2 532.1,418.1 		"/>
	</g>
</g>
<g id="Layer_3" display="none">
	<g display="inline">
		<path fill="#FFFFFF" d="M359.5,385.2c0,0-0.1-1.5-0.6-2.8c-0.4-1-0.9-1.6-1.9-2.5c-1.6-1.5-1.9-3.4-1.9-3.4l7.5,0.1v8.6H359.5z"/>
		<path fill="#FFFFFF" d="M362.9,385.2c0,0,0.1-1.5,0.6-2.8c0.4-1,0.9-1.6,1.9-2.5c1.6-1.5,1.9-3.4,1.9-3.4l-7.5,0.1v8.6H362.9z"/>
		<circle fill="#FFFFFF" cx="361.2" cy="375.2" r="6.3"/>
	</g>
</g>
</svg>
