<?xml version="1.0" encoding="UTF-8"?>
<svg width="213px" height="213px" viewBox="0 0 213 213" version="1.1" xmlns="http://www.w3.org/2000/svg" xmlns:xlink="http://www.w3.org/1999/xlink">
    <!-- Generator: Sketch 42 (36781) - http://www.bohemiancoding.com/sketch -->
    <title>Group 8</title>
    <desc>Created with Sketch.</desc>
    <defs></defs>
    <g id="Welcome" stroke="none" stroke-width="1" fill="none" fill-rule="evenodd">
        <g id="Desktop" transform="translate(-714.000000, -2010.000000)">
            <g id="Group-8" transform="translate(714.000000, 2010.000000)">
                <ellipse id="Oval" fill="#DDF0FF" cx="106.376354" cy="106.376354" rx="106.376354" ry="106.376354"></ellipse>
                <g id="Group-2" transform="translate(108.639493, 101.204209) rotate(-37.000000) translate(-108.639493, -101.204209) translate(97.139493, 15.704209)">
                    <rect id="Rectangle-3" fill="#FCC805" x="-1.02318154e-12" y="32.6155057" width="11.3565288" height="110.315368"></rect>
                    <rect id="Rectangle-3" fill="#FFD73E" x="11.3565288" y="32.6155057" width="11.3565288" height="110.315368"></rect>
                    <rect id="Rectangle-4" fill="#8C9299" x="0" y="151.938555" width="11.3565288" height="3.11215307"></rect>
                    <rect id="Rectangle-4" fill="#979CA3" x="1.13686838e-13" y="148.892617" width="11.3565288" height="3.11215307"></rect>
                    <rect id="Rectangle-4" fill="#A3A6AC" x="11.3567825" y="151.938555" width="11.3565288" height="3.11215307"></rect>
                    <rect id="Rectangle-4" fill="#8C9299" x="-1.13686838e-13" y="145.846679" width="11.3565288" height="3.11215307"></rect>
                    <rect id="Rectangle-4" fill="#ADB1B6" x="11.3567825" y="148.892617" width="11.3565288" height="3.11215307"></rect>
                    <rect id="Rectangle-4" fill="#979CA3" x="-1.13686838e-13" y="142.800741" width="11.3565288" height="3.11215307"></rect>
                    <rect id="Rectangle-4" fill="#ADB1B6" x="11.3567825" y="142.800741" width="11.3565288" height="3.11215307"></rect>
                    <rect id="Rectangle-4" fill="#A3A6AC" x="11.3567825" y="145.846679" width="11.3565288" height="3.11215307"></rect>
                    <rect id="Rectangle-4" fill="#FC7C7C" x="-4.54747351e-13" y="154.984493" width="11.3565288" height="15.1413251"></rect>
                    <rect id="Rectangle-4" fill="#FF9898" x="11.3567825" y="154.984493" width="11.3565288" height="15.1413251"></rect>
                    <polygon id="Triangle" fill="#F9EAD9" points="11.3565288 0.169809152 11.3565288 32.7905072 -1.13686838e-13 32.7905072"></polygon>
                    <polyline id="Triangle" fill="#FBF0E3" points="11.3565288 0.169809152 11.3565288 32.7905072 22.7130576 32.7905072"></polyline>
                    <polygon id="Triangle" fill="#554F4F" points="11.3755333 0.169809152 11.3755333 16.0321497 5.82019531 16.0321497"></polygon>
                    <polyline id="Triangle" fill="#8B8B8B" points="11.3567825 0.179172824 11.3567825 16.0415134 16.9121205 16.0415134"></polyline>
                </g>
            </g>
        </g>
    </g>
</svg>