<?xml version="1.0" encoding="UTF-8"?>
<svg width="213px" height="213px" viewBox="0 0 213 213" version="1.1" xmlns="http://www.w3.org/2000/svg" xmlns:xlink="http://www.w3.org/1999/xlink">
    <!-- Generator: Sketch 42 (36781) - http://www.bohemiancoding.com/sketch -->
    <title>Group 6</title>
    <desc>Created with Sketch.</desc>
    <defs></defs>
    <g id="Welcome" stroke="none" stroke-width="1" fill="none" fill-rule="evenodd">
        <g id="Desktop" transform="translate(-97.000000, -2010.000000)">
            <g id="Group-5" transform="translate(97.000000, 2010.000000)">
                <g id="Group-6">
                    <ellipse id="Oval" fill="#DDF0FF" cx="106.376354" cy="106.376354" rx="106.376354" ry="106.376354"></ellipse>
                    <g id="Group-3" transform="translate(39.000000, 45.000000)">
                        <g id="Group">
                            <rect id="Rectangle-9" fill="#504947" x="0" y="19.0061503" width="68.2008204" height="94.9425287"></rect>
                            <rect id="Rectangle-9" fill="#CDCDCD" x="101.283904" y="13.2159005" width="19.6683168" height="5.7902498"></rect>
                            <rect id="Rectangle-9" fill="#BBBBBB" x="15.2998303" y="13.2146606" width="19.6683168" height="5.7902498"></rect>
                            <rect id="Rectangle-9" fill="#5B5452" x="68" y="19.0061503" width="68.2008204" height="94.9425287"></rect>
                            <path d="M51.9235926,0.0176445254 L51.9235926,0 L45.1414144,0 L45.1414144,19.0061503 L51.9235926,19.0061503 L51.9235926,6.79925372 L68.2008204,6.79925372 L68.2008204,0.0176445254 L51.9235926,0.0176445254 Z" id="Combined-Shape" fill="#6A6563"></path>
                            <path d="M84.9554455,6.79925372 L84.9554455,19.0061503 L91.7376238,19.0061503 L91.7376238,0 L84.9554455,0 L84.9554455,0.0176445254 L68,0.0176445254 L68,6.79925372 L84.9554455,6.79925372 Z" id="Combined-Shape" fill="#7D7776"></path>
                            <polygon id="Path-2" fill="#FFFFFF" points="128.019641 27.0669475 114.319632 27.0669475 128.019641 36.0191428"></polygon>
                        </g>
                    </g>
                </g>
            </g>
        </g>
    </g>
</svg>