<?xml version="1.0" encoding="UTF-8"?>
<svg width="213px" height="213px" viewBox="0 0 213 213" version="1.1" xmlns="http://www.w3.org/2000/svg" xmlns:xlink="http://www.w3.org/1999/xlink">
    <!-- Generator: Sketch 42 (36781) - http://www.bohemiancoding.com/sketch -->
    <title>Group 7</title>
    <desc>Created with Sketch.</desc>
    <defs></defs>
    <g id="Welcome" stroke="none" stroke-width="1" fill="none" fill-rule="evenodd">
        <g id="Desktop" transform="translate(-406.000000, -2010.000000)">
            <g id="Group-7" transform="translate(406.000000, 2010.000000)">
                <ellipse id="Oval" fill="#DDF0FF" cx="106.376354" cy="106.376354" rx="106.376354" ry="106.376354"></ellipse>
                <g id="Group-4" transform="translate(107.000000, 105.000000) scale(-1, 1) translate(-107.000000, -105.000000) translate(27.000000, 25.000000)">
                    <g id="Group-3" transform="translate(79.771096, 80.295716) rotate(-45.000000) translate(-79.771096, -80.295716) translate(54.271096, -6.704284)">
                        <path d="M25.3878428,128.180213 L25.3878428,141.787043 L12.5581271,150.931342 L12.5581271,127.894476 L12.5584659,45.6619068 L25.3881816,45.6619068 L25.3881816,128.180213 Z M12.5581271,22.625067 L25.3878428,31.7693668 L25.3878428,45.6619334 L12.5581271,45.6619334 L12.5581271,22.625067 Z" id="Combined-Shape" fill="#C1BFBF"></path>
                        <path d="M38.2599231,127.894476 L38.2599231,45.6617838 L25.4302074,45.6617838 L25.4302074,128.037283 L25.4302074,141.786893 L38.2614723,150.931193 L38.2599231,127.894476 Z M38.2616017,22.625067 L38.2600525,45.6617838 L25.4303368,45.6617838 L25.4303368,31.7693668 L38.2616017,22.625067 Z" id="Combined-Shape" fill="#D0CFCF"></path>
                        <polygon id="Rectangle-8" fill="#D8D8D8" points="1.81188398e-13 13.4996206 12.4890666 -5.43565193e-13 12.4890666 45.5643711 1.81188398e-13 32.0647504"></polygon>
                        <polygon id="Triangle-2" fill="#D3D3D3" points="12.4890666 22.625067 12.4890666 45.5643711 -1.38555833e-13 32.0647504"></polygon>
                        <polygon id="Triangle-2" fill="#D3D3D3" points="12.4890666 -5.43565193e-13 12.4890666 22.625067 1.81188398e-13 13.4996206"></polygon>
                        <polygon id="Triangle-2" fill="#DDDDDD" transform="translate(6.252900, 22.782186) scale(-1, 1) translate(-6.252900, -22.782186) " points="12.5058002 13.5121928 12.5058002 32.0521783 -1.26121336e-13 22.5834413"></polygon>
                        <polygon id="Triangle-2" fill="#C7C7C7" points="12.4890666 22.625067 12.4890666 45.5643711 -1.38555833e-13 32.0647504"></polygon>
                        <polygon id="Triangle-2" fill="#DADADA" transform="translate(44.546821, 34.094719) scale(-1, 1) translate(-44.546821, -34.094719) " points="50.7913544 22.625067 50.7913544 45.5643711 38.3022877 32.0647504"></polygon>
                        <polygon id="Triangle-2" fill="#D2D1D1" points="12.4890666 -5.43565193e-13 12.4890666 22.625067 1.81188398e-13 13.4996206"></polygon>
                        <path d="M46.1391807,16.8988467 L50.7913544,13.4996206 L38.3022877,-5.47117907e-13 L38.3022877,22.625067 L38.3302654,22.6046245 L50.8080879,32.0521783 L50.8080879,13.5121928 L46.1391807,16.8988467 Z" id="Combined-Shape" fill="#E1E1E1"></path>
                        <polygon id="Triangle-2" fill="#D2D1D1" transform="translate(6.252900, 22.782186) scale(-1, 1) translate(-6.252900, -22.782186) " points="12.5058002 13.5121928 12.5058002 32.0521783 -1.26121336e-13 22.5834413"></polygon>
                        <polygon id="Rectangle-8" fill="#D8D8D8" points="1.98951966e-13 141.708334 12.4890666 128.208713 12.4890666 173.773084 1.98951966e-13 160.273464"></polygon>
                        <polygon id="Triangle-2" fill="#D3D3D3" points="12.4890666 150.83378 12.4890666 173.773084 -1.27897692e-13 160.273464"></polygon>
                        <polygon id="Triangle-2" fill="#D3D3D3" points="12.4890666 128.208713 12.4890666 150.83378 1.98951966e-13 141.708334"></polygon>
                        <polygon id="Triangle-2" fill="#DDDDDD" transform="translate(6.252900, 150.990899) scale(-1, 1) translate(-6.252900, -150.990899) " points="12.5058002 141.720906 12.5058002 160.260891 6.23501251e-13 150.792154"></polygon>
                        <polygon id="Triangle-2" fill="#D2D1D1" points="12.4890666 150.83378 12.4890666 173.773084 -1.27897692e-13 160.273464"></polygon>
                        <polygon id="Triangle-2" fill="#C7C7C7" points="12.4890666 128.208713 12.4890666 150.83378 1.98951966e-13 141.708334"></polygon>
                        <polygon id="Triangle-2" fill="#D2D1D1" transform="translate(6.252900, 150.990899) scale(-1, 1) translate(-6.252900, -150.990899) " points="12.5058002 141.720906 12.5058002 160.260891 6.23501251e-13 150.792154"></polygon>
                        <path d="M38.3022877,150.83378 L50.7913544,160.273464 L38.3022877,173.773084 L38.3022877,150.83378 Z M50.8080879,141.720906 L50.8080879,160.260891 L38.3022877,150.792154 L50.8080879,141.720906 Z" id="Combined-Shape" fill="#E1E1E1"></path>
                        <polygon id="Triangle-2" fill="#DADADA" transform="translate(44.546821, 139.521247) scale(-1, 1) translate(-44.546821, -139.521247) " points="50.7913544 128.208713 50.7913544 150.83378 38.3022877 141.708334"></polygon>
                    </g>
                </g>
            </g>
        </g>
    </g>
</svg>